{
  "asset": { "version": "2.0" },
  "scene": 0,
  "scenes": [{ "nodes": [0,1,2,3,4,5,6,7,8] }],
  "nodes": [{"mesh":0},{"mesh":1},{"mesh":2},{"mesh":3},{"mesh":4},{"mesh":5},{"mesh":6},{"mesh":7},{"mesh":8}],
  "meshes": [{"primitives":[{"attributes":{"POSITION":0,"TEXCOORD_0":1},"indices":2,"material":0}]},{"primitives":[{"attributes":{"POSITION":3,"TEXCOORD_0":4},"indices":5,"material":0}]},{"primitives":[{"attributes":{"POSITION":6,"TEXCOORD_0":7},"indices":8,"material":0}]},{"primitives":[{"attributes":{"POSITION":9,"TEXCOORD_0":10},"indices":11,"material":0}]},{"primitives":[{"attributes":{"POSITION":12,"TEXCOORD_0":13},"indices":14,"material":0}]},{"primitives":[{"attributes":{"POSITION":15,"TEXCOORD_0":16},"indices":17,"material":0}]},{"primitives":[{"attributes":{"POSITION":18,"TEXCOORD_0":19},"indices":20,"material":0}]},{"primitives":[{"attributes":{"POSITION":21,"TEXCOORD_0":22},"indices":23,"material":0}]},{"primitives":[{"attributes":{"POSITION":24,"TEXCOORD_0":25},"indices":26,"material":0}]}],
  "materials": [{
    "name" : "Boss_BD2",
    "pbrMetallicRoughness": {
      "baseColorTexture": { "index": 0 },
      "metallicFactor": 0.0,
      "roughnessFactor": 1.0
    }
  }],
  "samplers": [{ "magFilter": 9728, "minFilter": 9728 }],
  "textures": [{ "source": 0, "sampler": 0 }],
  "images": [{ "uri": "Boss_BD2.png" }],
  "accessors": [{"bufferView":0,"byteOffset":0,"componentType":5126,"count":12,"type":"VEC3","min":[-2.125,0.5,-0.115625],"max":[-1.925,0.5,0.084375]},{"bufferView":1,"byteOffset":0,"componentType":5126,"count":12,"type":"VEC2"},{"bufferView":2,"byteOffset":0,"componentType":5123,"count":12,"type":"SCALAR"},{"bufferView":3,"byteOffset":0,"componentType":5126,"count":60,"type":"VEC3","min":[-0.408245121,-0.0589182159,1.1],"max":[0.111370121,0.480793216,1.4]},{"bufferView":4,"byteOffset":0,"componentType":5126,"count":60,"type":"VEC2"},{"bufferView":5,"byteOffset":0,"componentType":5123,"count":60,"type":"SCALAR"},{"bufferView":6,"byteOffset":0,"componentType":5126,"count":60,"type":"VEC3","min":[-0.408245121,-0.0589182159,-1.4],"max":[0.111370121,0.480793216,-1.1]},{"bufferView":7,"byteOffset":0,"componentType":5126,"count":60,"type":"VEC2"},{"bufferView":8,"byteOffset":0,"componentType":5123,"count":60,"type":"SCALAR"},{"bufferView":9,"byteOffset":0,"componentType":5126,"count":144,"type":"VEC3","min":[-0.4921875,0.609375,-1.265625],"max":[2.0703125,1.265625,1.234375]},{"bufferView":10,"byteOffset":0,"componentType":5126,"count":144,"type":"VEC2"},{"bufferView":11,"byteOffset":0,"componentType":5123,"count":144,"type":"SCALAR"},{"bufferView":12,"byteOffset":0,"componentType":5126,"count":162,"type":"VEC3","min":[-1.9639375,0.5278125,0.2978125],"max":[-1.2079375,1.12828125,1.0538125]},{"bufferView":13,"byteOffset":0,"componentType":5126,"count":162,"type":"VEC2"},{"bufferView":14,"byteOffset":0,"componentType":5123,"count":162,"type":"SCALAR"},{"bufferView":15,"byteOffset":0,"componentType":5126,"count":162,"type":"VEC3","min":[-1.9639375,0.5278125,-1.0928125],"max":[-1.2079375,1.12828125,-0.3368125]},{"bufferView":16,"byteOffset":0,"componentType":5126,"count":162,"type":"VEC2"},{"bufferView":17,"byteOffset":0,"componentType":5123,"count":162,"type":"SCALAR"},{"bufferView":18,"byteOffset":0,"componentType":5126,"count":66,"type":"VEC3","min":[-1.1953125,0.528375,-0.23625],"max":[-0.7090625,0.984375,0.244125]},{"bufferView":19,"byteOffset":0,"componentType":5126,"count":66,"type":"VEC2"},{"bufferView":20,"byteOffset":0,"componentType":5123,"count":66,"type":"SCALAR"},{"bufferView":21,"byteOffset":0,"componentType":5126,"count":36,"type":"VEC3","min":[-0.5,0,-1],"max":[1.75,1,1]},{"bufferView":22,"byteOffset":0,"componentType":5126,"count":36,"type":"VEC2"},{"bufferView":23,"byteOffset":0,"componentType":5123,"count":36,"type":"SCALAR"},{"bufferView":24,"byteOffset":0,"componentType":5126,"count":72,"type":"VEC3","min":[-2.25,-0.703125,-1.25],"max":[1.875,0.9296875,1.25]},{"bufferView":25,"byteOffset":0,"componentType":5126,"count":72,"type":"VEC2"},{"bufferView":26,"byteOffset":0,"componentType":5123,"count":72,"type":"SCALAR"}],
  "bufferViews": [{"buffer":0,"byteOffset":0,"byteLength":144,"target":34962},{"buffer":0,"byteOffset":144,"byteLength":96,"target":34962},{"buffer":0,"byteOffset":240,"byteLength":24,"target":34963},{"buffer":0,"byteOffset":264,"byteLength":720,"target":34962},{"buffer":0,"byteOffset":984,"byteLength":480,"target":34962},{"buffer":0,"byteOffset":1464,"byteLength":120,"target":34963},{"buffer":0,"byteOffset":1584,"byteLength":720,"target":34962},{"buffer":0,"byteOffset":2304,"byteLength":480,"target":34962},{"buffer":0,"byteOffset":2784,"byteLength":120,"target":34963},{"buffer":0,"byteOffset":2904,"byteLength":1728,"target":34962},{"buffer":0,"byteOffset":4632,"byteLength":1152,"target":34962},{"buffer":0,"byteOffset":5784,"byteLength":288,"target":34963},{"buffer":0,"byteOffset":6072,"byteLength":1944,"target":34962},{"buffer":0,"byteOffset":8016,"byteLength":1296,"target":34962},{"buffer":0,"byteOffset":9312,"byteLength":324,"target":34963},{"buffer":0,"byteOffset":9636,"byteLength":1944,"target":34962},{"buffer":0,"byteOffset":11580,"byteLength":1296,"target":34962},{"buffer":0,"byteOffset":12876,"byteLength":324,"target":34963},{"buffer":0,"byteOffset":13200,"byteLength":792,"target":34962},{"buffer":0,"byteOffset":13992,"byteLength":528,"target":34962},{"buffer":0,"byteOffset":14520,"byteLength":132,"target":34963},{"buffer":0,"byteOffset":14652,"byteLength":432,"target":34962},{"buffer":0,"byteOffset":15084,"byteLength":288,"target":34962},{"buffer":0,"byteOffset":15372,"byteLength":72,"target":34963},{"buffer":0,"byteOffset":15444,"byteLength":864,"target":34962},{"buffer":0,"byteOffset":16308,"byteLength":576,"target":34962},{"buffer":0,"byteOffset":16884,"byteLength":144,"target":34963}],
  "buffers": [{ "uri": "Boss_BD2.bin", "byteLength": 17028 }]
}