{
  "asset": { "version": "2.0" },
  "scene": 0,
  "scenes": [{ "nodes": [0] }],
  "nodes": [{"mesh":0}],
  "meshes": [{"primitives":[{"attributes":{"POSITION":0,"TEXCOORD_0":1},"indices":2,"material":0}]}],
  "materials": [{
    "name" : "boss_sd1_merged",
    "pbrMetallicRoughness": {
      "baseColorTexture": { "index": 0 },
      "metallicFactor": 0.0,
      "roughnessFactor": 1.0
    }
  }],
  "samplers": [{ "magFilter": 9728, "minFilter": 9728 }],
  "textures": [{ "source": 0, "sampler": 0 }],
  "images": [{ "uri": "boss_sd1_merged.png" }],
  "accessors": [{"bufferView":0,"byteOffset":0,"componentType":5126,"count":774,"type":"VEC3","min":[-2.25,-0.703125,-1.4],"max":[2.0703125,1.265625,1.4]},{"bufferView":1,"byteOffset":0,"componentType":5126,"count":774,"type":"VEC2"},{"bufferView":2,"byteOffset":0,"componentType":5123,"count":774,"type":"SCALAR"}],
  "bufferViews": [{"buffer":0,"byteOffset":0,"byteLength":9288,"target":34962},{"buffer":0,"byteOffset":9288,"byteLength":6192,"target":34962},{"buffer":0,"byteOffset":15480,"byteLength":1548,"target":34963}],
  "buffers": [{ "uri": "boss_sd1_merged.bin", "byteLength": 17028 }]
}